<svg class="icon" viewBox="0 0 1024 1024" xmlns="http://www.w3.org/2000/svg" width="100" height="100"><path d="M759.89 190.72c-3.41 0-6.61-.85-9.81-2.35C668.37 146.13 597.33 128 512.43 128c-84.69 0-164.48 20.27-237.65 60.16-10.45 5.55-23.25 1.92-29.01-8.53-5.55-10.45-1.92-23.25 8.53-29.01 79.57-43.31 166.4-65.28 258.13-65.28 90.88 0 170.24 20.05 257.28 65.07 10.45 5.33 14.51 18.35 9.17 28.8-3.84 7.24-11.31 11.51-18.99 11.51zm-610.56 224c-4.27 0-8.53-1.28-12.37-3.84-9.6-6.83-11.95-20.05-5.12-29.65 42.24-59.73 96.21-106.67 160.21-139.73 134.19-69.33 305.71-69.55 440.11-.43 63.79 32.85 117.55 79.36 160 138.67 6.83 9.6 4.69 22.83-4.91 29.65-9.6 6.83-23.04 4.69-29.87-4.91-38.4-53.76-87.04-96-144.64-125.44-122.45-62.93-278.83-62.72-401.07.43-57.81 29.87-106.67 72.32-144.85 126.51-4.26 5.75-10.87 8.74-17.49 8.74zm266.88 514.77c-5.55 0-10.88-2.13-15.15-6.4-36.91-37.33-56.96-61.01-85.76-112.43-29.44-52.48-45.01-116.69-45.01-185.39 0-126.72 108.37-229.97 241.71-229.97s241.71 103.04 241.71 229.97c0 11.73-9.6 21.33-21.33 21.33s-21.33-9.6-21.33-21.33c0-103.25-89.17-187.31-199.04-187.31-109.65 0-199.04 84.05-199.04 187.31 0 61.44 13.65 118.19 39.47 164.48 27.52 49.07 45.87 70.19 78.72 103.25 8.32 8.32 8.32 21.97-.21 30.08-3.86 4.49-9.4 6.41-14.74 6.41zm305.71-78.93c-50.77 0-95.36-12.8-132.27-37.76-63.36-43.09-101.33-113.07-101.33-187.31 0-11.73 9.6-21.33 21.33-21.33 11.73 0 21.33 9.6 21.33 21.33 0 59.95 30.93 116.69 82.77 151.89 30.08 20.48 65.49 30.51 108.16 30.51 10.24 0 27.52-1.07 44.59-4.05 11.52-2.13 22.61 5.76 24.75 17.28 2.13 11.52-5.76 22.61-17.28 24.75-24.96 4.48-46.08 4.69-52.05 4.69zm-85.97 88.11c-1.92 0-3.84-.21-5.55-.85-68.05-18.56-112.43-43.73-158.51-89.6-59.52-59.31-92.37-138.45-92.37-222.72 0-69.33 58.88-125.65 131.41-125.65s131.41 56.32 131.41 125.65c0 45.65 39.89 82.99 88.75 82.99s88.75-37.12 88.75-82.99c0-160.85-138.67-291.63-309.12-291.63-121.39 0-232.11 67.41-282.03 171.95-16.64 34.56-24.96 74.88-24.96 119.68 0 33.28 2.99 85.76 28.37 153.81 4.05 11.09-1.49 23.25-12.59 27.52-11.09 4.05-23.25-1.49-27.52-12.59-20.91-56.11-31.15-111.15-31.15-168.75 0-51.2 9.81-97.71 29.23-138.03C247.03 368.42 372.9 291.41 510.5 291.41c193.92 0 351.79 149.97 351.79 334.29 0 69.33-59.09 125.65-131.41 125.65S599.47 695.03 599.47 625.7c0-45.65-39.89-82.99-88.75-82.99s-88.75 37.12-88.75 82.99c0 72.75 28.37 141.23 79.79 192.43 40.32 40.11 79.57 62.29 139.73 78.72 11.31 3.2 18.13 14.93 14.93 26.24-2.55 9.39-11.09 15.58-20.47 15.58z" fill="#1296db"/></svg>